#!OML:ASF Y:\EmotionMaleHayes\Project 1\Capture day 1\Session 1\Male1.ASF
:FULLY-SPECIFIED
:DEGREES
104
root 6.31907 17.3145 0.564387 24.7264 84.732 29.2248
lowerback 6.14887 -0.0215207 -5.51695
upperback 5.57427 0.234543 -6.99805
thorax 2.37398 0.242421 -4.18688
lowerneck -14.6376 -7.98277 -14.1849
upperneck 26.8072 -1.14035 -16.6399
head 11.7109 -3.56613 -4.01788
rclavicle 8.34896e-015 -1.27222e-014
rhumerus -31.8411 27.653 -53.6771
rradius 71.2665
rwrist -10.8006
rhand 7.26519 -30.6345
rfingers 7.12502
rthumb 32.5281 -57.7331
lclavicle 8.34896e-015 -1.27222e-014
lhumerus -49.3796 -36.4083 60.0984
lradius 85.9009
lwrist 11.55
lhand 18.9163 -15.7875
lfingers 7.12502
lthumb 43.5243 8.27055
rfemur 10.5198 -2.94649 2.93761
rtibia 2.68058
rfoot -9.73679 -4.50617
rtoes -7.74356
lfemur 16.3987 2.48153 -11.2537
ltibia -0.313528
lfoot -11.9374 11.6356
ltoes -5.35707
105
root 6.32024 17.3167 0.561729 25.4029 84.7364 29.8622
lowerback 6.31112 0.0677506 -5.71921
upperback 5.43685 0.31812 -7.05707
thorax 2.14366 0.282782 -4.13914
lowerneck -14.6833 -7.93302 -14.1248
upperneck 26.5465 -1.06788 -16.8203
head 11.619 -3.52665 -4.0686
rclavicle -2.78299e-015 -1.59028e-014
rhumerus -31.7356 25.1086 -53.3897
rradius 70.4914
rwrist -10.9925
rhand 6.14304 -30.0184
rfingers 7.12502
rthumb 31.4596 -57.3312
lclavicle -2.78299e-015 -1.59028e-014
lhumerus -49.8372 -37.2244 59.1484
lradius 88.0051
lwrist 13.1525
lhand 20.4889 -15.3948
lfingers 7.12502
lthumb 44.9902 8.10865
rfemur 10.4307 -3.07155 2.82334
rtibia 2.80676
rfoot -9.7592 -4.4082
rtoes -7.4098
lfemur 16.26 2.45758 -11.3733
ltibia -0.132803
lfoot -12.0832 11.6413
ltoes -5.06734
106
root 6.32078 17.3204 0.560271 25.1447 84.7757 29.5786
lowerback 6.44637 0.171053 -5.81171
upperback 5.29004 0.424051 -7.1132
thorax 1.91852 0.337204 -4.15156
lowerneck -14.2985 -7.91782 -14.2405
upperneck 26.0083 -1.24232 -16.7469
head 11.3243 -3.54818 -3.98922
rclavicle 6.36111e-015 4.29375e-014
rhumerus -31.8284 22.4854 -53.2225
rradius 69.7869
rwrist -11.1546
rhand 4.81076 -29.4207
rfingers 7.12502
rthumb 30.1895 -56.9735
lclavicle 6.36111e-015 4.29375e-014
lhumerus -50.1517 -38.0844 58.0922
lradius 90.0424
lwrist 14.892
lhand 22.6981 -14.7828
lfingers 7.12502
lthumb 47.0398 7.86587
rfemur 10.3764 -3.12343 2.85919
rtibia 2.86092
rfoot -9.7613 -4.33124
rtoes -6.92002
lfemur 16.1444 2.44101 -11.3467
ltibia 0.0503836
lfoot -12.2833 11.5683
ltoes -4.45656
107
root 6.31976 17.3238 0.560037 22.7042 84.8568 27.087
lowerback 6.60037 0.272703 -5.73643
upperback 5.13165 0.523577 -7.08273
thorax 1.66864 0.388728 -4.16688
lowerneck -14.8794 -7.86092 -14.0674
upperneck 26.1365 -0.971074 -16.9757
head 11.4995 -3.46865 -4.10231
rclavicle 2.38542e-015 -1.11319e-014
rhumerus -31.8007 19.8685 -52.9899
rradius 68.938
rwrist -11.5258
rhand 4.0652 -28.8972
rfingers 7.12502
rthumb 29.478 -56.5777
lclavicle 2.38542e-015 -1.11319e-014
lhumerus -50.3999 -38.742 56.9865
lradius 92.0134
lwrist 16.4132
lhand 25.0168 -14.4513
lfingers 7.12502
lthumb 49.1766 7.19329
rfemur 10.3014 -3.17736 3.16079
rtibia 2.84642
rfoot -9.67804 -4.31878
rtoes -7.76169
lfemur 16.0619 2.48155 -11.0289
ltibia 0.15556
lfoot -12.3812 11.4924
ltoes -4.17421
108
root 6.31884 17.3271 0.55903 19.9075 84.9272 24.242
lowerback 6.75773 0.378233 -5.62799
upperback 4.96967 0.62977 -7.05934
thorax 1.41402 0.444425 -4.20985
lowerneck -14.4 -7.94584 -14.4184
upperneck 25.6196 -1.2664 -16.7996
head 11.2025 -3.55249 -3.96525
rclavicle 1.19271e-014 6.99722e-014
rhumerus -31.7623 17.2246 -52.7926
rradius 67.9498
rwrist -12.0282
rhand 3.52029 -28.0766
rfingers 7.12502
rthumb 28.9576 -55.8477
lclavicle 1.19271e-014 6.99722e-014
lhumerus -50.3977 -39.3312 55.704
lradius 93.8928
lwrist 17.9896
lhand 25.4457 -14.713
lfingers 7.12502
lthumb 49.57 6.73262
rfemur 10.2492 -3.28267 3.46292
rtibia 2.80867
rfoot -9.5512 -4.33518
rtoes -9.13928
lfemur 15.9901 2.58863 -10.6676
ltibia 0.243104
lfoot -12.4102 11.4343
ltoes -3.95374
109
root 6.31865 17.3299 0.55743 18.0773 84.9763 22.3876
lowerback 6.8226 0.474859 -5.59564
upperback 4.92053 0.748213 -7.06568
thorax 1.33072 0.505486 -4.24225
lowerneck -14.0709 -7.96133 -14.6155
upperneck 25.006 -1.4562 -16.7444
head 10.8999 -3.58387 -3.88331
rclavicle -3.18055e-015 2.70347e-014
rhumerus -31.5682 14.4591 -52.5676
rradius 66.9836
rwrist -12.5804
rhand 2.82985 -27.2464
rfingers 7.12502
rthumb 28.298 -55.1287
lclavicle -3.18055e-015 2.70347e-014
lhumerus -49.9889 -39.7751 54.2207
lradius 95.6246
lwrist 19.7473
lhand 26.8283 -14.5364
lfingers 7.12502
lthumb 50.8342 6.23706
rfemur 10.2239 -3.23309 3.69319
rtibia 2.84954
rfoot -9.60525 -4.44125
rtoes -9.14721
lfemur 15.9122 2.56947 -10.4764
ltibia 0.337489
lfoot -12.4245 11.48
ltoes -3.95116
110
root 6.31961 17.3317 0.555316 17.6528 84.9559 21.9117
lowerback 6.87476 0.580363 -5.72533
upperback 4.88425 0.874903 -7.07139
thorax 1.26752 0.567382 -4.18385
lowerneck -14.2581 -7.95657 -14.7968
upperneck 24.6394 -1.44365 -16.6996
head 10.8051 -3.56554 -3.82372
rclavicle 9.93923e-015 8.26944e-014
rhumerus -31.2543 11.7513 -52.2754
rradius 66.0613
rwrist -13.054
rhand 2.26619 -26.9618
rfingers 7.12502
rthumb 27.7591 -54.9322
lclavicle 9.93923e-015 8.26944e-014
lhumerus -49.5161 -40.0922 52.7298
lradius 97.2647
lwrist 21.5236
lhand 28.6302 -14.1628
lfingers 7.12502
lthumb 52.4713 5.65873
rfemur 10.1439 -3.15382 3.75374
rtibia 2.90172
rfoot -9.67311 -4.49254
rtoes -8.31076
lfemur 15.8104 2.50486 -10.4789
ltibia 0.431975
lfoot -12.4228 11.5578
ltoes -4.28731
111
root 6.32155 17.3341 0.555144 18.2624 84.8752 22.4773
lowerback 6.89004 0.713658 -5.97603
upperback 4.82187 1.03586 -7.1132
thorax 1.19802 0.645319 -4.09781
lowerneck -14.6645 -7.90066 -14.8002
upperneck 24.4461 -1.30012 -16.7242
head 10.8164 -3.50354 -3.81966
rclavicle 5.56597e-015 6.04305e-014
rhumerus -31.1481 9.1385 -52.0393
rradius 65.3411
rwrist -13.5936
rhand 1.67935 -27.0194
rfingers 7.12502
rthumb 27.1979 -55.079
lclavicle 5.56597e-015 6.04305e-014
lhumerus -48.9927 -40.4169 51.0842
lradius 99.0033
lwrist 23.4925
lhand 30.1716 -14.0583
lfingers 7.12502
lthumb 53.8612 4.87318
rfemur 10.0948 -3.05931 3.67676
rtibia 2.85688
rfoot -9.67701 -4.47327
rtoes -7.34587
lfemur 15.7427 2.49993 -10.5793
ltibia 0.519988
lfoot -12.5003 11.586
ltoes -4.26382
112
root 6.32636 17.3374 0.556855 16.6413 85.0273 20.8698
lowerback 6.78235 0.766989 -6.00676
upperback 4.90673 1.12582 -7.04988
thorax 1.34746 0.686635 -4.01634
lowerneck -15.1079 -7.81787 -14.7268
upperneck 24.0815 -1.13988 -16.847
head 10.7673 -3.42347 -3.85103
rclavicle 1.27222e-014 9.54166e-014
rhumerus -30.8392 6.40595 -51.8032
rradius 64.4953
rwrist -14.4866
rhand 0.86611 -27.0664
rfingers 7.12502
rthumb 26.4197 -55.2453
lclavicle 1.27222e-014 9.54166e-014
lhumerus -48.2531 -40.4123 49.3443
lradius 100.741
lwrist 25.4583
lhand 31.0558 -14.1597
lfingers 7.12502
lthumb 54.6536 4.22661
rfemur 10.2163 -2.89894 3.97484
rtibia 2.78001
rfoot -9.7845 -4.64442
rtoes -6.54899
lfemur 15.7332 2.59789 -10.2592
ltibia 0.594786
lfoot -12.4166 11.377
ltoes -4.45513
